<?xml version="1.0" encoding="utf-8"?>
<!-- Generator: Adobe Illustrator 16.0.0, SVG Export Plug-In . SVG Version: 6.00 Build 0)  -->
<!DOCTYPE svg PUBLIC "-//W3C//DTD SVG 1.1//EN" "http://www.w3.org/Graphics/SVG/1.1/DTD/svg11.dtd">
<svg version="1.1" id="Layer_1" xmlns="http://www.w3.org/2000/svg" xmlns:xlink="http://www.w3.org/1999/xlink" x="0px" y="0px"
	 width="256px" height="256px" viewBox="0 0 256 256" enable-background="new 0 0 256 256" xml:space="preserve">
<path fill-rule="evenodd" clip-rule="evenodd" fill="#6E6E6E" d="M36.279,12.083h182.983c13.263,0,24.112,10.849,24.112,24.096
	v182.97c0,13.263-10.85,24.109-24.112,24.109H36.279c-13.232,0-24.081-10.847-24.081-24.109V36.179
	C12.198,22.933,23.046,12.083,36.279,12.083"/>
<polygon fill="#ECECEC" points="76.444,105.441 53.021,120.961 40.982,113.797 54.087,87.805 54.087,75.968 46.375,57.704 
	65.25,67.236 76.036,48.987 83.279,69.509 111.906,89.012 193.865,89.451 216.284,117.043 208.603,123.047 200.921,113.734 
	201.36,123.047 95.351,123.047 "/>
<path fill="#ECECEC" d="M95.726,140.323l0.502,62.804h31.229v-21.776l26.809,0.266v21.511h27.497v-24.771
	c0,0,6.021,26.995,23.768,26.888c17.746-0.127,15.52-30.76,15.646-30.652h-12.292c0,0,0.785,11.149-2.477,10.896
	c-3.26-0.266-5.016-7.132-4.984-10.77c0-3.623,0.093-34.396,0.093-34.396H95.726z"/>
</svg>
